<mxfile host="65bd71144e">
    <diagram id="pUdoAuegUnDI5iTsmrC3" name="PÃ¡gina-1">
        <mxGraphModel dx="828" dy="457" grid="1" gridSize="10" guides="1" tooltips="1" connect="1" arrows="1" fold="1" page="1" pageScale="1" pageWidth="827" pageHeight="1169" math="0" shadow="0">
            <root>
                <mxCell id="0"/>
                <mxCell id="1" parent="0"/>
                <mxCell id="9" style="edgeStyle=none;html=1;fontSize=17;" edge="1" parent="1" source="7" target="8">
                    <mxGeometry relative="1" as="geometry"/>
                </mxCell>
                <mxCell id="7" value="&lt;p style=&quot;line-height: 90%; font-size: 17px;&quot;&gt;&lt;font color=&quot;#000000&quot;&gt;INICIO&lt;/font&gt;&lt;/p&gt;" style="ellipse;whiteSpace=wrap;html=1;fillColor=#60a917;fontColor=#ffffff;strokeColor=#2D7600;" vertex="1" parent="1">
                    <mxGeometry x="320" y="50" width="210" height="90" as="geometry"/>
                </mxCell>
                <mxCell id="14" style="edgeStyle=none;html=1;entryX=0.5;entryY=0;entryDx=0;entryDy=0;fontSize=23;" edge="1" parent="1" source="8" target="13">
                    <mxGeometry relative="1" as="geometry"/>
                </mxCell>
                <mxCell id="8" value="&lt;font color=&quot;#000000&quot; style=&quot;font-size: 23px;&quot;&gt;n&lt;/font&gt;" style="shape=parallelogram;perimeter=parallelogramPerimeter;whiteSpace=wrap;html=1;fixedSize=1;fontSize=17;fillColor=#1ba1e2;fontColor=#ffffff;strokeColor=#006EAF;" vertex="1" parent="1">
                    <mxGeometry x="332.5" y="210" width="185" height="70" as="geometry"/>
                </mxCell>
                <mxCell id="16" style="edgeStyle=none;html=1;fontSize=23;" edge="1" parent="1" source="13" target="15">
                    <mxGeometry relative="1" as="geometry"/>
                </mxCell>
                <mxCell id="13" value="s = (n *(n + 1)) / 2" style="rounded=0;whiteSpace=wrap;html=1;fontSize=23;fillColor=#f0a30a;fontColor=#000000;strokeColor=#BD7000;" vertex="1" parent="1">
                    <mxGeometry x="330" y="380" width="190" height="90" as="geometry"/>
                </mxCell>
                <mxCell id="15" value="&lt;font color=&quot;#000000&quot;&gt;s&lt;/font&gt;" style="shape=document;whiteSpace=wrap;html=1;boundedLbl=1;fontSize=23;fillColor=#a0522d;fontColor=#ffffff;strokeColor=#6D1F00;" vertex="1" parent="1">
                    <mxGeometry x="325" y="540" width="200" height="100" as="geometry"/>
                </mxCell>
                <mxCell id="17" value="&lt;p style=&quot;line-height: 90%; font-size: 17px;&quot;&gt;&lt;font color=&quot;#000000&quot;&gt;FIN&lt;/font&gt;&lt;/p&gt;" style="ellipse;whiteSpace=wrap;html=1;fillColor=#0050ef;fontColor=#ffffff;strokeColor=#001DBC;" vertex="1" parent="1">
                    <mxGeometry x="320" y="720" width="210" height="90" as="geometry"/>
                </mxCell>
                <mxCell id="18" value="" style="endArrow=classic;html=1;fontSize=23;entryX=0.5;entryY=0;entryDx=0;entryDy=0;exitX=0.51;exitY=0.84;exitDx=0;exitDy=0;exitPerimeter=0;" edge="1" parent="1" source="15" target="17">
                    <mxGeometry width="50" height="50" relative="1" as="geometry">
                        <mxPoint x="470" y="660" as="sourcePoint"/>
                        <mxPoint x="520" y="610" as="targetPoint"/>
                    </mxGeometry>
                </mxCell>
            </root>
        </mxGraphModel>
    </diagram>
</mxfile>